# xmcd CD database file
#
# Track frame offsets:
#	150
#	27593
#	49770
#
# Disc length: 892 seconds
#
# Revision: 1
# Processed by: cddbd v1.5.2PL0 Copyright (c) Steve Scherf et al.
# Submitted via: CDex 1.70beta3
#
DISCID=21037a03
DTITLE=川本真琴 - ブロッサム
DYEAR=2001
DGENRE=J-POP
TTITLE0=ブロッサム
TTITLE1=ALPHABET WEEKS
TTITLE2=OCTOPUS THEATER(stan's lonely hearts hammock version)
EXTD=YEAR: 2001
EXTT0=
EXTT1=
EXTT2=
PLAYORDER=
